# xmcd
#
# Track frame offsets: 
#        150
#        20557
#        42670
#        59270
#        76177
#        92020
#        112800
#        127117
#        150047
#        167420
#        182562
#        200795
#        225732
#        250912
#        270647
#        285790
#
# Disc length: 4181 seconds
#
# Revision: 4
# Processed by: cddbd v1.5.2PL0 Copyright (c) Steve Scherf et al.
# Submitted via: ExactAudioCopy v0.99pb5
#
DISCID=c8105310
DTITLE=Mary Chapin Carpenter - The Essential
DYEAR=2003
DGENRE=Country Pop
TTITLE0=Stones in the road
TTITLE1=The long way home
TTITLE2=Shut up and kiss me
TTITLE3=I take my chances
TTITLE4=I feel lucky
TTITLE5=Almost home
TTITLE6=Halley came to Jackson
TTITLE7=I am a town
TTITLE8=Quittin' time
TTITLE9=Down at the twist and shout
TTITLE10=He thinks he'll keep her
TTITLE11=Only a dream
TTITLE12=Late for your life
TTITLE13=The hard way
TTITLE14=Passionate kisses
TTITLE15=10,000 miles
EXTD=YEAR: 2003
EXTT0=
EXTT1=
EXTT2=
EXTT3=
EXTT4=
EXTT5=
EXTT6=
EXTT7=
EXTT8=
EXTT9=
EXTT10=
EXTT11=
EXTT12=
EXTT13=
EXTT14=
EXTT15=
PLAYORDER=
